<svg width="1920" height="10553" viewBox="0 0 1920 10553" fill="none" xmlns="http://www.w3.org/2000/svg">
<g clip-path="url(#clip0_113_2)">
<rect width="1920" height="10553" fill="black"/>
<g opacity="0.5">
<path d="M130 5H7.5V286.5H130V227H246V107.5H130V5Z" stroke="white" stroke-width="0.5"/>
<path d="M2156.5 389.5H2253V5H1872V227H2037.5V71.5H2156.5V389.5Z" stroke="white" stroke-width="0.5"/>
<path d="M660 45V5H1564V124.5H1408V45H660Z" stroke="white" stroke-width="0.5"/>
<path d="M246 813H7.5V475.5H87V578H173V667.5H57V740.5H246V813Z" stroke="white" stroke-width="0.5"/>
<path d="M1815.5 412.5H1726V508.5H1656.5V793.5H1895V614.5H1815.5V412.5Z" stroke="white" stroke-width="0.5"/>
<path d="M809 667.5V720.5V740.5H1358.5V813H1478V548H1097V614.5H1319V667.5H809Z" stroke="white" stroke-width="0.5"/>
</g>
<g opacity="0.5">
<path d="M346 907.5V1249.5H149.5V1020.5H32.5V1302.5H526.5V1249.5H412V907.5H346Z" stroke="white" stroke-width="0.5"/>
<path d="M1826.5 1066.5V994H1912.5V1102H2056V1159.5H1358.5V1066.5H1826.5Z" stroke="white" stroke-width="0.5"/>
<path d="M676.5 223.5H593V371.5H734V314H676.5V223.5Z" stroke="white" stroke-width="0.5"/>
<path d="M932.5 1082H811.5V994H758.5V1159.5H932.5V1082Z" stroke="white" stroke-width="0.5"/>
<path d="M1495.5 1536.5H1424.5V1479H1358.5V1433H1495.5V1388.5H1195.5V1344.5H1568V1660H1495.5V1536.5Z" stroke="white" stroke-width="0.5"/>
<path d="M120.5 1433H4V1836.5H193.5V1775H120.5V1433Z" stroke="white" stroke-width="0.5"/>
</g>
<path opacity="0.5" d="M619.5 1523.5H727.5V1770H807.5V1817H467.5V1496H531V1739.5H603V1523.5" stroke="white" stroke-width="0.5"/>
<g opacity="0.5">
<path d="M2131 2788H2253.5V2506.5H2131V2566H2015V2685.5H2131V2788Z" stroke="white" stroke-width="0.5"/>
<path d="M104.5 2403.5H8V2788H389V2566H223.5V2721.5H104.5V2403.5Z" stroke="white" stroke-width="0.5"/>
<path d="M1601 2748V2788H697V2668.5H853V2748H1601Z" stroke="white" stroke-width="0.5"/>
<path d="M2015 1980H2253.5V2317.5H2174V2215H2088V2125.5H2204V2052.5H2015V1980Z" stroke="white" stroke-width="0.5"/>
<path d="M445.5 2380.5H535V2284.5H604.5V1999.5H366V2178.5H445.5V2380.5Z" stroke="white" stroke-width="0.5"/>
<path d="M1452 2125.5V2072.5V2052.5H902.5V1980H783V2245H1164V2178.5H942V2125.5H1452Z" stroke="white" stroke-width="0.5"/>
</g>
<g opacity="0.5">
<path d="M-0.779053 4983.49L409.015 4982.22L409.892 5178.72L135.498 5179.57L136.02 5296.57L473.921 5295.52L471.716 4801.52L408.21 4801.72L408.721 4916.22L-1.0736 4917.49L-0.779053 4983.49Z" stroke="white" stroke-width="0.5"/>
<path d="M183.132 3502.41L96.2604 3502.68L95.8766 3416.68L225.285 3416.28L224.645 3272.78L293.543 3272.56L296.656 3970.06L185.221 3970.41L183.132 3502.41Z" stroke="white" stroke-width="0.5"/>
<path d="M-821.843 4655.54L-821.47 4739.04L-644.132 4738.49L-644.762 4597.49L-713.66 4597.7L-713.403 4655.2L-821.843 4655.54Z" stroke="white" stroke-width="0.5"/>
<path d="M205.694 4396.34L206.234 4517.34L100.79 4517.67L101.027 4570.67L299.334 4570.06L298.557 4396.06L205.694 4396.34Z" stroke="white" stroke-width="0.5"/>
<path d="M747.777 3831.66L748.094 3902.66L679.196 3902.87L679.49 3968.87L624.372 3969.04L623.761 3832.04L570.439 3832.21L571.778 4132.21L519.056 4132.37L517.394 3759.87L895.435 3758.7L895.759 3831.2L747.777 3831.66Z" stroke="white" stroke-width="0.5"/>
<path d="M629.897 5207.03L630.417 5323.53L1113.9 5322.03L1113.06 5132.53L1039.37 5132.76L1039.69 5205.76L629.897 5207.03Z" stroke="white" stroke-width="0.5"/>
</g>
<path opacity="0.5" d="M736.11 4707.7L735.628 4599.7L1030.99 4598.78L1030.63 4518.78L1086.95 4518.61L1088.47 4858.6L703.837 4859.8L703.554 4796.3L995.322 4795.39L995.001 4723.39L736.184 4724.2" stroke="white" stroke-width="0.5"/>
<g opacity="0.5">
<path d="M2244.53 3191.5L2243.98 3069L1906.68 3070.05L1907.22 3192.55L1978.52 3192.33L1979.04 3308.33L2122.22 3307.88L2121.71 3191.88L2244.53 3191.5Z" stroke="white" stroke-width="0.5"/>
<path d="M1792.85 5219.42L1793.28 5315.92L2254 5314.48L2252.3 4933.49L1986.29 4934.31L1987.03 5099.81L2173.36 5099.23L2173.89 5218.23L1792.85 5219.42Z" stroke="white" stroke-width="0.5"/>
<path d="M2198.96 3721.64L2246.89 3721.5L2250.93 4625.49L2107.74 4625.93L2107.04 4469.94L2202.3 4469.64L2198.96 3721.64Z" stroke="white" stroke-width="0.5"/>
<path d="M1276.87 3310.51L1275.81 3072.01L1680.21 3070.75L1680.57 3150.25L1557.75 3150.63L1558.13 3236.63L1450.89 3236.97L1450.37 3120.97L1362.9 3121.24L1363.75 3310.24L1276.87 3310.51Z" stroke="white" stroke-width="0.5"/>
<path d="M1763.77 4878.51L1763.37 4789.01L1648.34 4789.36L1648.03 4719.86L1306.53 4720.93L1307.6 4959.42L1522.08 4958.76L1521.73 4879.26L1763.77 4878.51Z" stroke="white" stroke-width="0.5"/>
<path d="M1453.73 3872.96L1390.22 3873.16L1366.26 3873.23L1368.71 4422.73L1281.84 4423L1282.37 4542.5L1599.9 4541.51L1598.2 4160.52L1518.52 4160.76L1519.51 4382.76L1456 4382.96L1453.73 3872.96Z" stroke="white" stroke-width="0.5"/>
</g>
<g opacity="0.5">
<path d="M1917.11 7964.73L1918.19 7554.93L2114.69 7555.18L2113.97 7829.58L2230.97 7829.73L2231.86 7491.83L1737.86 7491.19L1737.69 7554.7L1852.19 7554.85L1851.11 7964.64L1917.11 7964.73Z" stroke="white" stroke-width="0.5"/>
<path d="M437.111 7772.3L436.882 7859.18L350.882 7859.07L351.223 7729.66L207.723 7729.47L207.905 7660.57L905.407 7661.47L905.112 7772.91L437.111 7772.3Z" stroke="white" stroke-width="0.5"/>
<path d="M1584.45 8783.89L1667.95 8784L1668.42 8606.66L1527.42 8606.48L1527.23 8675.38L1584.73 8675.45L1584.45 8783.89Z" stroke="white" stroke-width="0.5"/>
<path d="M1331.16 7754.88L1452.16 7755.04L1451.88 7860.48L1504.88 7860.55L1505.41 7662.24L1331.41 7662.02L1331.16 7754.88Z" stroke="white" stroke-width="0.5"/>
<path d="M769.599 7209.56L840.599 7209.65L840.417 7278.55L906.417 7278.63L906.272 7333.75L769.271 7333.58L769.13 7386.9L1069.13 7387.28L1068.99 7440.01L696.491 7439.53L697.489 7061.49L769.989 7061.58L769.599 7209.56Z" stroke="white" stroke-width="0.5"/>
<path d="M2144.27 7335.34L2260.77 7335.49L2262.05 6852.01L2072.55 6851.76L2072.36 6925.46L2145.36 6925.55L2144.27 7335.34Z" stroke="white" stroke-width="0.5"/>
</g>
<path opacity="0.5" d="M1645.56 7226.26L1537.56 7226.12L1538.34 6930.76L1458.34 6930.66L1458.49 6874.34L1798.49 6874.78L1797.47 7259.41L1733.97 7259.33L1734.74 6967.56L1662.74 6967.47L1662.06 7226.28" stroke="white" stroke-width="0.5"/>
<g opacity="0.5">
<path d="M138.056 5709.16L15.5557 5709L14.6653 6046.3L137.166 6046.46L137.354 5975.16L253.354 5975.31L253.732 5832.13L137.732 5831.98L138.056 5709.16Z" stroke="white" stroke-width="0.5"/>
<path d="M2163.34 6172.48L2259.84 6172.61L2261.06 5711.89L1880.06 5711.4L1879.36 5977.4L2044.86 5977.62L2045.35 5791.29L2164.35 5791.44L2163.34 6172.48Z" stroke="white" stroke-width="0.5"/>
<path d="M667.931 5757.77L668.057 5709.84L1572.06 5711L1571.68 5854.19L1415.68 5853.99L1415.93 5758.73L667.931 5757.77Z" stroke="white" stroke-width="0.5"/>
<path d="M251.501 6677.48L13.0001 6677.17L14.0675 6272.77L93.5677 6272.87L93.2435 6395.69L179.244 6395.8L178.961 6503.04L62.9604 6502.89L62.7295 6590.36L251.73 6590.61L251.501 6677.48Z" stroke="white" stroke-width="0.5"/>
<path d="M1822.27 6199.6L1732.77 6199.49L1732.47 6314.52L1662.97 6314.43L1662.07 6655.92L1900.57 6656.23L1901.13 6441.75L1821.63 6441.65L1822.27 6199.6Z" stroke="white" stroke-width="0.5"/>
<path d="M814.962 6503.86L814.795 6567.36L814.731 6591.33L1364.23 6592.04L1364 6678.91L1483.5 6679.06L1484.34 6361.53L1103.34 6361.04L1103.13 6440.72L1325.13 6441.01L1324.96 6504.51L814.962 6503.86Z" stroke="white" stroke-width="0.5"/>
</g>
</g>
<defs>
<clipPath id="clip0_113_2">
<rect width="1920" height="10553" fill="white"/>
</clipPath>
</defs>
</svg>
