<svg width="1920" height="1337" viewBox="0 0 1920 1337" fill="none" xmlns="http://www.w3.org/2000/svg">
<rect width="1920" height="1337" fill="black"/>
<path d="M102.5 6H6.5V322H58V386H102.5V322H152H228.5V235.5H174V191H120V235.5H58V132H102.5V6Z" stroke="white"/>
<path d="M6.5 497V603.5V672.5H58V633H102.5V707V783.5H139.5V707H208.5V618V559H58V497H6.5Z" stroke="white"/>
<path d="M6.5 1119V1329H371.5V1294.5H73V1242.5H228.5V1173.5V1042.5H186.5V1173.5H120V1119H6.5Z" stroke="white"/>
<path d="M139.5 874.5H6.5V921.5H58V963.5H139.5V874.5Z" stroke="white"/>
<path d="M722 6H946.5H1598V255.5H1549V53H1388.5V132V161.5H1297V132H1156.5V87.5H1213V53H722V6Z" stroke="white"/>
<path d="M1433 1329H1916.5V823H1842.5V963.5H1800.5V1060H1549V1143.5H1786L1800.5 1277H1433V1329Z" stroke="white"/>
<path d="M981 766H806V726.5H680V687H981V766Z" stroke="white"/>
<path d="M1388.5 514.5V438H1349V386H1213V322H1388.5V275H1124.5V514.5H1388.5Z" stroke="white"/>
<path d="M371.5 438V191L391.5 176.5V309.5H413.5V117H502.5V53H320V497H519.5V438H371.5Z" stroke="white"/>
<path d="M793.5 1005.5H537V1042.5H705V1089.5H569V1143.5H981V1042.5H1156.5V1119H1260V981H867.5V1042.5H793.5V1005.5Z" stroke="white"/>
<path d="M1692 438H1623H1433V482.5H1655V514.5H1514.5V576H1433V633V783.5H1482V633H1549V559H1692V438Z" stroke="white"/>
<path d="M1756 53V6H1916.5V161.5H1842.5V117H1800.5V53H1756Z" stroke="white"/>
<path d="M922 223H788.5V166.5H759V356.5H788.5V307H907L922 223Z" stroke="white"/>
</svg>
