<svg width="499" height="59" viewBox="0 0 499 59" fill="none" xmlns="http://www.w3.org/2000/svg">
<rect width="499" height="59" fill="white"/>
<path d="M81.08 46V19.6H92.696C95.576 19.6 97.832 20.224 99.464 21.472C101.096 22.72 101.912 24.448 101.912 26.656C101.912 28.48 101.256 29.936 99.944 31.024C98.632 32.112 96.904 32.656 94.76 32.656V32.224C97.096 32.224 98.968 32.8 100.376 33.952C101.816 35.072 102.536 36.576 102.536 38.464C102.536 40.832 101.688 42.688 99.992 44.032C98.296 45.344 95.96 46 92.984 46H81.08ZM86.168 41.824H92.888C94.296 41.824 95.4 41.504 96.2 40.864C97.032 40.224 97.448 39.344 97.448 38.224C97.448 37.072 97.032 36.176 96.2 35.536C95.4 34.864 94.296 34.528 92.888 34.528H86.168V41.824ZM86.168 30.688H92.696C93.976 30.688 94.984 30.384 95.72 29.776C96.456 29.168 96.824 28.32 96.824 27.232C96.824 26.176 96.456 25.344 95.72 24.736C94.984 24.096 93.976 23.776 92.696 23.776H86.168V30.688ZM138.595 54.64V19.6H143.731V24.64H144.835L143.731 25.84C143.731 23.76 144.371 22.128 145.651 20.944C146.963 19.728 148.707 19.12 150.883 19.12C153.539 19.12 155.651 20.016 157.219 21.808C158.819 23.568 159.619 25.984 159.619 29.056V36.496C159.619 38.544 159.251 40.32 158.515 41.824C157.811 43.296 156.803 44.448 155.491 45.28C154.211 46.08 152.675 46.48 150.883 46.48C148.739 46.48 147.011 45.888 145.699 44.704C144.387 43.488 143.731 41.84 143.731 39.76L144.835 40.96H143.635L143.779 47.104V54.64H138.595ZM149.107 41.968C150.803 41.968 152.115 41.488 153.043 40.528C154.003 39.536 154.483 38.112 154.483 36.256V29.344C154.483 27.488 154.003 26.08 153.043 25.12C152.115 24.128 150.803 23.632 149.107 23.632C147.475 23.632 146.179 24.144 145.219 25.168C144.259 26.16 143.779 27.552 143.779 29.344V36.256C143.779 38.048 144.259 39.456 145.219 40.48C146.179 41.472 147.475 41.968 149.107 41.968ZM175.104 46.48C172.352 46.48 170.176 45.776 168.576 44.368C167.008 42.928 166.224 40.976 166.224 38.512C166.224 36.016 167.056 34.064 168.72 32.656C170.416 31.216 172.736 30.496 175.68 30.496H183.024V28.048C183.024 26.608 182.576 25.488 181.68 24.688C180.784 23.888 179.52 23.488 177.888 23.488C176.448 23.488 175.248 23.808 174.288 24.448C173.328 25.056 172.768 25.872 172.608 26.896H167.52C167.808 24.528 168.896 22.64 170.784 21.232C172.704 19.824 175.12 19.12 178.032 19.12C181.168 19.12 183.648 19.92 185.472 21.52C187.296 23.088 188.208 25.232 188.208 27.952V46H183.168V41.152H182.304L183.168 40.192C183.168 42.112 182.432 43.648 180.96 44.8C179.488 45.92 177.536 46.48 175.104 46.48ZM176.64 42.496C178.496 42.496 180.016 42.032 181.2 41.104C182.416 40.144 183.024 38.928 183.024 37.456V34H175.776C174.432 34 173.36 34.368 172.56 35.104C171.792 35.84 171.408 36.848 171.408 38.128C171.408 39.472 171.872 40.544 172.8 41.344C173.728 42.112 175.008 42.496 176.64 42.496ZM205.229 46.336C202.413 46.336 200.093 45.712 198.269 44.464C196.445 43.184 195.341 41.472 194.957 39.328H200.237C200.461 40.096 201.021 40.736 201.917 41.248C202.813 41.728 203.917 41.968 205.229 41.968H207.629C209.069 41.968 210.189 41.632 210.989 40.96C211.789 40.288 212.189 39.408 212.189 38.32C212.189 37.2 211.789 36.304 210.989 35.632C210.221 34.96 209.101 34.624 207.629 34.624H201.725V30.4H207.437C208.781 30.4 209.805 30.096 210.509 29.488C211.213 28.848 211.565 28 211.565 26.944C211.565 26.24 211.405 25.648 211.085 25.168C210.797 24.656 210.349 24.272 209.741 24.016C209.133 23.76 208.381 23.632 207.485 23.632H205.133C203.949 23.632 202.925 23.904 202.061 24.448C201.229 24.96 200.717 25.616 200.525 26.416H195.245C195.597 24.304 196.669 22.592 198.461 21.28C200.285 19.936 202.509 19.264 205.133 19.264H207.485C209.437 19.264 211.117 19.568 212.525 20.176C213.933 20.752 215.005 21.584 215.741 22.672C216.509 23.76 216.893 25.04 216.893 26.512C216.893 28.144 216.333 29.488 215.213 30.544C214.093 31.568 212.557 32.112 210.605 32.176C212.909 32.304 214.637 32.928 215.789 34.048C216.941 35.136 217.517 36.672 217.517 38.656C217.517 40.992 216.621 42.864 214.829 44.272C213.037 45.648 210.637 46.336 207.629 46.336H205.229ZM224.938 54.64V19.6H230.074V24.64H231.178L230.074 25.84C230.074 23.76 230.714 22.128 231.994 20.944C233.306 19.728 235.05 19.12 237.226 19.12C239.882 19.12 241.994 20.016 243.562 21.808C245.162 23.568 245.962 25.984 245.962 29.056V36.496C245.962 38.544 245.594 40.32 244.858 41.824C244.154 43.296 243.146 44.448 241.834 45.28C240.554 46.08 239.018 46.48 237.226 46.48C235.082 46.48 233.354 45.888 232.042 44.704C230.73 43.488 230.074 41.84 230.074 39.76L231.178 40.96H229.978L230.122 47.104V54.64H224.938ZM235.45 41.968C237.146 41.968 238.458 41.488 239.386 40.528C240.346 39.536 240.826 38.112 240.826 36.256V29.344C240.826 27.488 240.346 26.08 239.386 25.12C238.458 24.128 237.146 23.632 235.45 23.632C233.818 23.632 232.522 24.144 231.562 25.168C230.602 26.16 230.122 27.552 230.122 29.344V36.256C230.122 38.048 230.602 39.456 231.562 40.48C232.522 41.472 233.818 41.968 235.45 41.968ZM261.448 46.48C258.696 46.48 256.52 45.776 254.92 44.368C253.352 42.928 252.568 40.976 252.568 38.512C252.568 36.016 253.4 34.064 255.064 32.656C256.76 31.216 259.08 30.496 262.023 30.496H269.368V28.048C269.368 26.608 268.92 25.488 268.024 24.688C267.128 23.888 265.864 23.488 264.232 23.488C262.792 23.488 261.592 23.808 260.632 24.448C259.672 25.056 259.112 25.872 258.952 26.896H253.864C254.152 24.528 255.24 22.64 257.128 21.232C259.048 19.824 261.464 19.12 264.376 19.12C267.512 19.12 269.992 19.92 271.816 21.52C273.64 23.088 274.552 25.232 274.552 27.952V46H269.512V41.152H268.648L269.512 40.192C269.512 42.112 268.776 43.648 267.304 44.8C265.832 45.92 263.88 46.48 261.448 46.48ZM262.984 42.496C264.84 42.496 266.36 42.032 267.544 41.104C268.76 40.144 269.368 38.928 269.368 37.456V34H262.12C260.776 34 259.704 34.368 258.904 35.104C258.136 35.84 257.752 36.848 257.752 38.128C257.752 39.472 258.216 40.544 259.144 41.344C260.072 42.112 261.352 42.496 262.984 42.496ZM292.869 46.48C289.637 46.448 287.077 45.52 285.189 43.696C283.301 41.84 282.357 39.312 282.357 36.112V24.16C282.357 19.936 283.445 16.688 285.621 14.416C287.829 12.112 290.965 10.96 295.029 10.96H302.085V16.048H295.029C292.565 16.048 290.693 16.752 289.413 18.16C288.165 19.536 287.541 21.536 287.541 24.16V27.328H288.213L287.589 28.24C287.589 26.384 288.197 24.928 289.413 23.872C290.661 22.784 292.373 22.24 294.549 22.24C297.333 22.24 299.493 23.152 301.029 24.976C302.597 26.768 303.381 29.248 303.381 32.416V36.112C303.381 38.256 302.949 40.112 302.085 41.68C301.253 43.216 300.053 44.4 298.485 45.232C296.917 46.064 295.045 46.48 292.869 46.48ZM292.869 41.92C294.597 41.92 295.909 41.424 296.805 40.432C297.733 39.408 298.197 37.968 298.197 36.112V32.416C298.197 30.528 297.733 29.088 296.805 28.096C295.909 27.072 294.597 26.56 292.869 26.56C291.141 26.56 289.813 27.056 288.885 28.048C287.989 29.04 287.541 30.496 287.541 32.416V36.112C287.541 37.968 287.989 39.408 288.885 40.432C289.813 41.424 291.141 41.92 292.869 41.92ZM321.65 46.432C319.474 46.432 317.586 46.016 315.986 45.184C314.386 44.352 313.154 43.168 312.29 41.632C311.426 40.096 310.994 38.288 310.994 36.208V29.392C310.994 27.28 311.426 25.472 312.29 23.968C313.154 22.432 314.386 21.248 315.986 20.416C317.586 19.584 319.474 19.168 321.65 19.168C323.826 19.168 325.714 19.584 327.314 20.416C328.914 21.248 330.146 22.432 331.01 23.968C331.874 25.472 332.306 27.28 332.306 29.392V36.208C332.306 38.288 331.874 40.096 331.01 41.632C330.146 43.168 328.914 44.352 327.314 45.184C325.714 46.016 323.826 46.432 321.65 46.432ZM321.65 41.872C323.41 41.872 324.77 41.392 325.73 40.432C326.69 39.44 327.17 38.032 327.17 36.208V29.392C327.17 27.536 326.69 26.128 325.73 25.168C324.77 24.208 323.41 23.728 321.65 23.728C319.922 23.728 318.562 24.208 317.57 25.168C316.61 26.128 316.13 27.536 316.13 29.392V36.208C316.13 38.032 316.61 39.44 317.57 40.432C318.562 41.392 319.922 41.872 321.65 41.872ZM347.839 46V24.256H338.527V19.6H362.335V24.256H353.023V46H347.839ZM369.085 46V19.6H374.269V30.208H378.493L385.501 19.6H391.357L382.957 32.272L391.501 46H385.549L378.493 34.672H374.269V46H369.085ZM407.994 46.48C405.85 46.48 403.962 46.064 402.33 45.232C400.73 44.368 399.498 43.168 398.634 41.632C397.77 40.096 397.338 38.304 397.338 36.256V29.344C397.338 27.264 397.77 25.472 398.634 23.968C399.498 22.432 400.73 21.248 402.33 20.416C403.962 19.552 405.85 19.12 407.994 19.12C410.17 19.12 412.058 19.552 413.658 20.416C415.258 21.248 416.49 22.432 417.354 23.968C418.218 25.472 418.65 27.264 418.65 29.344V34.048H402.33V36.256C402.33 38.208 402.81 39.696 403.77 40.72C404.762 41.744 406.186 42.256 408.042 42.256C409.546 42.256 410.762 42 411.69 41.488C412.618 40.944 413.194 40.16 413.418 39.136H418.554C418.17 41.376 417.018 43.168 415.098 44.512C413.178 45.824 410.81 46.48 407.994 46.48ZM413.658 30.928V29.296C413.658 27.376 413.178 25.888 412.218 24.832C411.258 23.776 409.85 23.248 407.994 23.248C406.17 23.248 404.762 23.776 403.77 24.832C402.81 25.888 402.33 27.392 402.33 29.344V30.544L414.042 30.496L413.658 30.928Z" fill="black"/>
</svg>
