<svg width="410" height="213" viewBox="0 0 410 213" fill="none" xmlns="http://www.w3.org/2000/svg">
<path d="M0 213C0 213 0 211.496 0 208.488V183.243H29.7464C29.7464 183.243 29.7464 184.747 29.7464 187.755V213C29.7464 213 28.243 213 25.2362 213H0ZM66.103 213C66.103 213 66.103 211.496 66.103 208.488V183.243H95.8494C95.8494 183.243 95.8494 184.747 95.8494 187.755V213C95.8494 213 94.346 213 91.3392 213H66.103ZM0 196.468C0 196.468 0 194.976 0 191.991V166.711H29.7464C29.7464 166.711 29.7464 168.215 29.7464 171.223V196.468C29.7464 196.468 28.243 196.468 25.2362 196.468H0ZM66.103 196.468C66.103 196.468 66.103 194.976 66.103 191.991V166.711H95.8494C95.8494 166.711 95.8494 168.215 95.8494 171.223V196.468C95.8494 196.468 94.346 196.468 91.3392 196.468H66.103ZM0 179.937C0 179.937 0 178.444 0 175.459V150.18H29.7464C29.7464 150.18 29.7464 151.684 29.7464 154.691V179.937C29.7464 179.937 28.243 179.937 25.2362 179.937H0ZM66.103 179.937C66.103 179.937 66.103 178.444 66.103 175.459V150.18H95.8494C95.8494 150.18 95.8494 151.684 95.8494 154.691V179.937C95.8494 179.937 94.346 179.937 91.3392 179.937H66.103ZM0 163.405C0 163.405 0 161.913 0 158.928V133.648H29.7464C29.7464 133.648 29.7464 135.152 29.7464 138.16V163.405C29.7464 163.405 28.243 163.405 25.2362 163.405H0ZM66.103 163.405C66.103 163.405 66.103 161.913 66.103 158.928V133.648H95.8494C95.8494 133.648 95.8494 135.152 95.8494 138.16V163.405C95.8494 163.405 94.346 163.405 91.3392 163.405H66.103ZM0 146.873C0 146.873 0 145.381 0 142.396V117.116H29.7464C29.7464 117.116 29.7464 118.62 29.7464 121.628V146.873C29.7464 146.873 28.243 146.873 25.2362 146.873H0ZM66.103 146.873C66.103 146.873 66.103 145.381 66.103 142.396V117.116H95.8494C95.8494 117.116 95.8494 118.62 95.8494 121.628V146.873C95.8494 146.873 94.346 146.873 91.3392 146.873H66.103ZM0 130.342C0 130.342 0 128.849 0 125.864V100.585H29.7464C29.7464 100.585 29.7464 102.089 29.7464 105.097V130.342C29.7464 130.342 28.243 130.342 25.2362 130.342H0ZM66.103 130.342C66.103 130.342 66.103 128.849 66.103 125.864V100.585H95.8494C95.8494 100.585 95.8494 102.089 95.8494 105.097V130.342C95.8494 130.342 94.346 130.342 91.3392 130.342H66.103ZM0 113.81C0 113.81 0 112.318 0 109.333V84.0531H29.7464C29.7464 84.0531 29.7464 85.557 29.7464 88.5649V113.81C29.7464 113.81 28.243 113.81 25.2362 113.81H0ZM16.5258 113.81C16.5258 113.81 16.5258 112.318 16.5258 109.333V84.0531H46.2721C46.2721 84.0531 46.2721 85.557 46.2721 88.5649V113.81C46.2721 113.81 44.7687 113.81 41.7619 113.81H16.5258ZM66.103 113.81C66.103 113.81 66.103 112.318 66.103 109.333V84.0531H95.8494C95.8494 84.0531 95.8494 85.557 95.8494 88.5649V113.81C95.8494 113.81 94.346 113.81 91.3392 113.81H66.103ZM0 97.2784C0 97.2784 0 95.786 0 92.8011V67.5215H29.7464C29.7464 67.5215 29.7464 69.0254 29.7464 72.0332V97.2784C29.7464 97.2784 28.243 97.2784 25.2362 97.2784H0ZM33.0515 97.2784C33.0515 97.2784 33.0515 95.786 33.0515 92.8011V67.5215H62.7979C62.7979 67.5215 62.7979 69.0254 62.7979 72.0332V97.2784C62.7979 97.2784 61.2945 97.2784 58.2877 97.2784H33.0515ZM49.5773 97.2784C49.5773 97.2784 49.5773 95.786 49.5773 92.8011V67.5215H79.3236C79.3236 67.5215 79.3236 69.0254 79.3236 72.0332V97.2784C79.3236 97.2784 77.8202 97.2784 74.8135 97.2784H49.5773ZM0 80.7468C0 80.7468 0 79.2543 0 76.2695V50.9898H29.7464C29.7464 50.9898 29.7464 52.4937 29.7464 55.5016V80.7468C29.7464 80.7468 28.243 80.7468 25.2362 80.7468H0ZM0 64.2151C0 64.2151 0 62.7227 0 59.7378V34.4582H29.7464C29.7464 34.4582 29.7464 35.9621 29.7464 38.9699V64.2151C29.7464 64.2151 28.243 64.2151 25.2362 64.2151H0ZM0 47.6835C0 47.6835 0 46.191 0 43.2062V17.9265H29.7464C29.7464 17.9265 29.7464 19.4304 29.7464 22.4383V47.6835C29.7464 47.6835 28.243 47.6835 25.2362 47.6835H0ZM0 31.1518C0 31.1518 0 29.6594 0 26.6745V1.39485H29.7464C29.7464 1.39485 29.7464 2.89877 29.7464 5.90662V31.1518C29.7464 31.1518 28.243 31.1518 25.2362 31.1518H0Z" fill="white"/>
<path d="M140.566 213C140.566 213 140.566 211.496 140.566 208.488V183.243H170.312C170.312 183.243 170.312 184.747 170.312 187.755V213C170.312 213 168.809 213 165.802 213H140.566ZM157.091 213C157.091 213 157.091 211.496 157.091 208.488V183.243H186.838C186.838 183.243 186.838 184.747 186.838 187.755V213C186.838 213 185.334 213 182.328 213H157.091ZM124.04 196.468C124.04 196.468 124.04 194.976 124.04 191.991V166.711H153.786C153.786 166.711 153.786 168.215 153.786 171.223V196.468C153.786 196.468 152.283 196.468 149.276 196.468H124.04ZM124.04 179.937C124.04 179.937 124.04 178.444 124.04 175.459V150.18H153.786C153.786 150.18 153.786 151.684 153.786 154.691V179.937C153.786 179.937 152.283 179.937 149.276 179.937H124.04ZM124.04 163.405C124.04 163.405 124.04 161.913 124.04 158.928V133.648H153.786C153.786 133.648 153.786 135.152 153.786 138.16V163.405C153.786 163.405 152.283 163.405 149.276 163.405H124.04ZM124.04 146.873C124.04 146.873 124.04 145.381 124.04 142.396V117.116H153.786C153.786 117.116 153.786 118.62 153.786 121.628V146.873C153.786 146.873 152.283 146.873 149.276 146.873H124.04ZM124.04 130.342C124.04 130.342 124.04 128.849 124.04 125.864V100.585H153.786C153.786 100.585 153.786 102.089 153.786 105.097V130.342C153.786 130.342 152.283 130.342 149.276 130.342H124.04ZM124.04 113.81C124.04 113.81 124.04 112.318 124.04 109.333V84.0531H153.786C153.786 84.0531 153.786 85.557 153.786 88.5649V113.81C153.786 113.81 152.283 113.81 149.276 113.81H124.04ZM107.514 97.2784C107.514 97.2784 107.514 95.786 107.514 92.8011V67.5215H137.261C137.261 67.5215 137.261 69.0254 137.261 72.0332V97.2784C137.261 97.2784 135.757 97.2784 132.75 97.2784H107.514ZM124.04 97.2784C124.04 97.2784 124.04 95.786 124.04 92.8011V67.5215H153.786C153.786 67.5215 153.786 69.0254 153.786 72.0332V97.2784C153.786 97.2784 152.283 97.2784 149.276 97.2784H124.04ZM140.566 97.2784C140.566 97.2784 140.566 95.786 140.566 92.8011V67.5215H170.312C170.312 67.5215 170.312 69.0254 170.312 72.0332V97.2784C170.312 97.2784 168.809 97.2784 165.802 97.2784H140.566ZM157.091 97.2784C157.091 97.2784 157.091 95.786 157.091 92.8011V67.5215H186.838C186.838 67.5215 186.838 69.0254 186.838 72.0332V97.2784C186.838 97.2784 185.334 97.2784 182.328 97.2784H157.091ZM124.04 80.7468C124.04 80.7468 124.04 79.2543 124.04 76.2695V50.9898H153.786C153.786 50.9898 153.786 52.4937 153.786 55.5016V80.7468C153.786 80.7468 152.283 80.7468 149.276 80.7468H124.04ZM124.04 64.2151C124.04 64.2151 124.04 62.7227 124.04 59.7378V34.4582H153.786C153.786 34.4582 153.786 35.9621 153.786 38.9699V64.2151C153.786 64.2151 152.283 64.2151 149.276 64.2151H124.04Z" fill="white"/>
<path d="M198.357 213C198.357 213 198.357 211.496 198.357 208.488V183.243H228.104C228.104 183.243 228.104 184.747 228.104 187.755V213C228.104 213 226.6 213 223.594 213H198.357ZM264.46 213C264.46 213 264.46 211.496 264.46 208.488V183.243H294.207C294.207 183.243 294.207 184.747 294.207 187.755V213C294.207 213 292.703 213 289.697 213H264.46ZM330.563 213C330.563 213 330.563 211.496 330.563 208.488V183.243H360.31C360.31 183.243 360.31 184.747 360.31 187.755V213C360.31 213 358.806 213 355.8 213H330.563ZM198.357 196.468C198.357 196.468 198.357 194.976 198.357 191.991V166.711H228.104C228.104 166.711 228.104 168.215 228.104 171.223V196.468C228.104 196.468 226.6 196.468 223.594 196.468H198.357ZM264.46 196.468C264.46 196.468 264.46 194.976 264.46 191.991V166.711H294.207C294.207 166.711 294.207 168.215 294.207 171.223V196.468C294.207 196.468 292.703 196.468 289.697 196.468H264.46ZM330.563 196.468C330.563 196.468 330.563 194.976 330.563 191.991V166.711H360.31C360.31 166.711 360.31 168.215 360.31 171.223V196.468C360.31 196.468 358.806 196.468 355.8 196.468H330.563ZM198.357 179.937C198.357 179.937 198.357 178.444 198.357 175.459V150.18H228.104C228.104 150.18 228.104 151.684 228.104 154.691V179.937C228.104 179.937 226.6 179.937 223.594 179.937H198.357ZM264.46 179.937C264.46 179.937 264.46 178.444 264.46 175.459V150.18H294.207C294.207 150.18 294.207 151.684 294.207 154.691V179.937C294.207 179.937 292.703 179.937 289.697 179.937H264.46ZM330.563 179.937C330.563 179.937 330.563 178.444 330.563 175.459V150.18H360.31C360.31 150.18 360.31 151.684 360.31 154.691V179.937C360.31 179.937 358.806 179.937 355.8 179.937H330.563ZM198.357 163.405C198.357 163.405 198.357 161.913 198.357 158.928V133.648H228.104C228.104 133.648 228.104 135.152 228.104 138.16V163.405C228.104 163.405 226.6 163.405 223.594 163.405H198.357ZM264.46 163.405C264.46 163.405 264.46 161.913 264.46 158.928V133.648H294.207C294.207 133.648 294.207 135.152 294.207 138.16V163.405C294.207 163.405 292.703 163.405 289.697 163.405H264.46ZM330.563 163.405C330.563 163.405 330.563 161.913 330.563 158.928V133.648H360.31C360.31 133.648 360.31 135.152 360.31 138.16V163.405C360.31 163.405 358.806 163.405 355.8 163.405H330.563ZM198.357 146.873C198.357 146.873 198.357 145.381 198.357 142.396V117.116H228.104C228.104 117.116 228.104 118.62 228.104 121.628V146.873C228.104 146.873 226.6 146.873 223.594 146.873H198.357ZM264.46 146.873C264.46 146.873 264.46 145.381 264.46 142.396V117.116H294.207C294.207 117.116 294.207 118.62 294.207 121.628V146.873C294.207 146.873 292.703 146.873 289.697 146.873H264.46ZM330.563 146.873C330.563 146.873 330.563 145.381 330.563 142.396V117.116H360.31C360.31 117.116 360.31 118.62 360.31 121.628V146.873C360.31 146.873 358.806 146.873 355.8 146.873H330.563ZM198.357 130.342C198.357 130.342 198.357 128.849 198.357 125.864V100.585H228.104C228.104 100.585 228.104 102.089 228.104 105.097V130.342C228.104 130.342 226.6 130.342 223.594 130.342H198.357ZM264.46 130.342C264.46 130.342 264.46 128.849 264.46 125.864V100.585H294.207C294.207 100.585 294.207 102.089 294.207 105.097V130.342C294.207 130.342 292.703 130.342 289.697 130.342H264.46ZM330.563 130.342C330.563 130.342 330.563 128.849 330.563 125.864V100.585H360.31C360.31 100.585 360.31 102.089 360.31 105.097V130.342C360.31 130.342 358.806 130.342 355.8 130.342H330.563ZM198.357 113.81C198.357 113.81 198.357 112.318 198.357 109.333V84.0531H228.104C228.104 84.0531 228.104 85.557 228.104 88.5649V113.81C228.104 113.81 226.6 113.81 223.594 113.81H198.357ZM214.883 113.81C214.883 113.81 214.883 112.318 214.883 109.333V84.0531H244.63C244.63 84.0531 244.63 85.557 244.63 88.5649V113.81C244.63 113.81 243.126 113.81 240.119 113.81H214.883ZM264.46 113.81C264.46 113.81 264.46 112.318 264.46 109.333V84.0531H294.207C294.207 84.0531 294.207 85.557 294.207 88.5649V113.81C294.207 113.81 292.703 113.81 289.697 113.81H264.46ZM280.986 113.81C280.986 113.81 280.986 112.318 280.986 109.333V84.0531H310.733C310.733 84.0531 310.733 85.557 310.733 88.5649V113.81C310.733 113.81 309.229 113.81 306.222 113.81H280.986ZM330.563 113.81C330.563 113.81 330.563 112.318 330.563 109.333V84.0531H360.31C360.31 84.0531 360.31 85.557 360.31 88.5649V113.81C360.31 113.81 358.806 113.81 355.8 113.81H330.563ZM198.357 97.2784C198.357 97.2784 198.357 95.786 198.357 92.8011V67.5215H228.104C228.104 67.5215 228.104 69.0254 228.104 72.0332V97.2784C228.104 97.2784 226.6 97.2784 223.594 97.2784H198.357ZM231.409 97.2784C231.409 97.2784 231.409 95.786 231.409 92.8011V67.5215H261.155C261.155 67.5215 261.155 69.0254 261.155 72.0332V97.2784C261.155 97.2784 259.652 97.2784 256.645 97.2784H231.409ZM247.935 97.2784C247.935 97.2784 247.935 95.786 247.935 92.8011V67.5215H277.681C277.681 67.5215 277.681 69.0254 277.681 72.0332V97.2784C277.681 97.2784 276.178 97.2784 273.171 97.2784H247.935ZM297.512 97.2784C297.512 97.2784 297.512 95.786 297.512 92.8011V67.5215H327.258C327.258 67.5215 327.258 69.0254 327.258 72.0332V97.2784C327.258 97.2784 325.755 97.2784 322.748 97.2784H297.512ZM314.038 97.2784C314.038 97.2784 314.038 95.786 314.038 92.8011V67.5215H343.784C343.784 67.5215 343.784 69.0254 343.784 72.0332V97.2784C343.784 97.2784 342.281 97.2784 339.274 97.2784H314.038Z" fill="white"/>
<path d="M380.254 213C380.254 213 380.254 211.496 380.254 208.488V183.243H410C410 183.243 410 184.747 410 187.755V213C410 213 408.497 213 405.49 213H380.254ZM380.254 196.468C380.254 196.468 380.254 194.976 380.254 191.991V166.711H410C410 166.711 410 168.215 410 171.223V196.468C410 196.468 408.497 196.468 405.49 196.468H380.254ZM380.254 179.937C380.254 179.937 380.254 178.444 380.254 175.459V150.18H410C410 150.18 410 151.684 410 154.691V179.937C410 179.937 408.497 179.937 405.49 179.937H380.254ZM380.254 163.405C380.254 163.405 380.254 161.913 380.254 158.928V133.648H410C410 133.648 410 135.152 410 138.16V163.405C410 163.405 408.497 163.405 405.49 163.405H380.254ZM380.254 146.873C380.254 146.873 380.254 145.381 380.254 142.396V117.116H410C410 117.116 410 118.62 410 121.628V146.873C410 146.873 408.497 146.873 405.49 146.873H380.254ZM380.254 130.342C380.254 130.342 380.254 128.849 380.254 125.864V100.585H410C410 100.585 410 102.089 410 105.097V130.342C410 130.342 408.497 130.342 405.49 130.342H380.254ZM380.254 113.81C380.254 113.81 380.254 112.318 380.254 109.333V84.0531H410C410 84.0531 410 85.557 410 88.5649V113.81C410 113.81 408.497 113.81 405.49 113.81H380.254ZM380.254 97.2784C380.254 97.2784 380.254 95.786 380.254 92.8011V67.5215H410C410 67.5215 410 69.0254 410 72.0332V97.2784C410 97.2784 408.497 97.2784 405.49 97.2784H380.254ZM380.254 80.7468C380.254 80.7468 380.254 79.2543 380.254 76.2695V50.9898H410C410 50.9898 410 52.4937 410 55.5016V80.7468C410 80.7468 408.497 80.7468 405.49 80.7468H380.254ZM380.254 64.2151C380.254 64.2151 380.254 62.7227 380.254 59.7378V34.4582H410C410 34.4582 410 35.9621 410 38.9699V64.2151C410 64.2151 408.497 64.2151 405.49 64.2151H380.254ZM380.254 47.6835C380.254 47.6835 380.254 46.191 380.254 43.2062V17.9265H410C410 17.9265 410 19.4304 410 22.4383V47.6835C410 47.6835 408.497 47.6835 405.49 47.6835H380.254ZM380.254 31.1518C380.254 31.1518 380.254 29.6594 380.254 26.6745V1.39485H410C410 1.39485 410 2.89877 410 5.90662V31.1518C410 31.1518 408.497 31.1518 405.49 31.1518H380.254Z" fill="white"/>
<path d="M279.802 0H380.764V50.499H279.802V0Z" fill="#1C0096"/>
<path d="M295.191 45.5654C295.191 45.5654 295.191 45.1894 295.191 44.4374V38.1261H302.628C302.628 38.1261 302.628 38.5021 302.628 39.2541V45.5654C302.628 45.5654 302.252 45.5654 301.5 45.5654H295.191ZM299.323 45.5654C299.323 45.5654 299.323 45.1894 299.323 44.4374V38.1261H306.759C306.759 38.1261 306.759 38.5021 306.759 39.2541V45.5654C306.759 45.5654 306.383 45.5654 305.632 45.5654H299.323ZM303.454 45.5654C303.454 45.5654 303.454 45.1894 303.454 44.4374V38.1261H310.891C310.891 38.1261 310.891 38.5021 310.891 39.2541V45.5654C310.891 45.5654 310.515 45.5654 309.763 45.5654H303.454ZM291.06 41.4325C291.06 41.4325 291.06 41.0593 291.06 40.3131V33.9932H298.496C298.496 33.9932 298.496 34.3692 298.496 35.1212V41.4325C298.496 41.4325 298.12 41.4325 297.369 41.4325H291.06ZM307.586 41.4325C307.586 41.4325 307.586 41.0593 307.586 40.3131V33.9932H315.022C315.022 33.9932 315.022 34.3692 315.022 35.1212V41.4325C315.022 41.4325 314.646 41.4325 313.895 41.4325H307.586ZM291.06 37.2995C291.06 37.2995 291.06 36.9264 291.06 36.1802V29.8603H298.496C298.496 29.8603 298.496 30.2363 298.496 30.9882V37.2995C298.496 37.2995 298.12 37.2995 297.369 37.2995H291.06ZM291.06 33.1666C291.06 33.1666 291.06 32.7935 291.06 32.0473V25.7274H298.496C298.496 25.7274 298.496 26.1034 298.496 26.8553V33.1666C298.496 33.1666 298.12 33.1666 297.369 33.1666H291.06ZM291.06 29.0337C291.06 29.0337 291.06 28.6606 291.06 27.9144V21.5945H298.496C298.496 21.5945 298.496 21.9704 298.496 22.7224V29.0337C298.496 29.0337 298.12 29.0337 297.369 29.0337H291.06ZM291.06 24.9008C291.06 24.9008 291.06 24.5277 291.06 23.7815V17.4616H298.496C298.496 17.4616 298.496 17.8375 298.496 18.5895V24.9008C298.496 24.9008 298.12 24.9008 297.369 24.9008H291.06ZM291.06 20.7679C291.06 20.7679 291.06 20.3948 291.06 19.6486V13.3286H298.496C298.496 13.3286 298.496 13.7046 298.496 14.4566V20.7679C298.496 20.7679 298.12 20.7679 297.369 20.7679H291.06ZM307.586 20.7679C307.586 20.7679 307.586 20.3948 307.586 19.6486V13.3286H315.022C315.022 13.3286 315.022 13.7046 315.022 14.4566V20.7679C315.022 20.7679 314.646 20.7679 313.895 20.7679H307.586ZM295.191 16.635C295.191 16.635 295.191 16.2619 295.191 15.5156V9.19573H302.628C302.628 9.19573 302.628 9.57171 302.628 10.3237V16.635C302.628 16.635 302.252 16.635 301.5 16.635H295.191ZM299.323 16.635C299.323 16.635 299.323 16.2619 299.323 15.5156V9.19573H306.759C306.759 9.19573 306.759 9.57171 306.759 10.3237V16.635C306.759 16.635 306.383 16.635 305.632 16.635H299.323ZM303.454 16.635C303.454 16.635 303.454 16.2619 303.454 15.5156V9.19573H310.891C310.891 9.19573 310.891 9.57171 310.891 10.3237V16.635C310.891 16.635 310.515 16.635 309.763 16.635H303.454Z" fill="white"/>
<path d="M322.078 45.5654C322.078 45.5654 322.078 45.1894 322.078 44.4374V38.1261H329.514C329.514 38.1261 329.514 38.5021 329.514 39.2541V45.5654C329.514 45.5654 329.139 45.5654 328.387 45.5654H322.078ZM326.209 45.5654C326.209 45.5654 326.209 45.1894 326.209 44.4374V38.1261H333.646C333.646 38.1261 333.646 38.5021 333.646 39.2541V45.5654C333.646 45.5654 333.27 45.5654 332.518 45.5654H326.209ZM330.341 45.5654C330.341 45.5654 330.341 45.1894 330.341 44.4374V38.1261H337.777C337.777 38.1261 337.777 38.5021 337.777 39.2541V45.5654C337.777 45.5654 337.401 45.5654 336.65 45.5654H330.341ZM317.946 41.4325C317.946 41.4325 317.946 41.0593 317.946 40.3131V33.9932H325.383C325.383 33.9932 325.383 34.3692 325.383 35.1212V41.4325C325.383 41.4325 325.007 41.4325 324.255 41.4325H317.946ZM334.472 41.4325C334.472 41.4325 334.472 41.0593 334.472 40.3131V33.9932H341.909C341.909 33.9932 341.909 34.3692 341.909 35.1212V41.4325C341.909 41.4325 341.533 41.4325 340.781 41.4325H334.472ZM317.946 37.2995C317.946 37.2995 317.946 36.9264 317.946 36.1802V29.8603H325.383C325.383 29.8603 325.383 30.2363 325.383 30.9882V37.2995C325.383 37.2995 325.007 37.2995 324.255 37.2995H317.946ZM334.472 37.2995C334.472 37.2995 334.472 36.9264 334.472 36.1802V29.8603H341.909C341.909 29.8603 341.909 30.2363 341.909 30.9882V37.2995C341.909 37.2995 341.533 37.2995 340.781 37.2995H334.472ZM330.341 33.1666C330.341 33.1666 330.341 32.7935 330.341 32.0473V25.7274H337.777C337.777 25.7274 337.777 26.1034 337.777 26.8553V33.1666C337.777 33.1666 337.401 33.1666 336.65 33.1666H330.341ZM326.209 31.1002C326.209 31.1002 326.209 30.7271 326.209 29.9808V23.6609H333.646C333.646 23.6609 333.646 24.0369 333.646 24.7889V31.1002C333.646 31.1002 333.27 31.1002 332.518 31.1002H326.209ZM322.078 29.0337C322.078 29.0337 322.078 28.6606 322.078 27.9144V21.5945H329.514C329.514 21.5945 329.514 21.9704 329.514 22.7224V29.0337C329.514 29.0337 329.139 29.0337 328.387 29.0337H322.078ZM317.946 24.9008C317.946 24.9008 317.946 24.5277 317.946 23.7815V17.4616H325.383C325.383 17.4616 325.383 17.8375 325.383 18.5895V24.9008C325.383 24.9008 325.007 24.9008 324.255 24.9008H317.946ZM334.472 24.9008C334.472 24.9008 334.472 24.5277 334.472 23.7815V17.4616H341.909C341.909 17.4616 341.909 17.8375 341.909 18.5895V24.9008C341.909 24.9008 341.533 24.9008 340.781 24.9008H334.472ZM317.946 20.7679C317.946 20.7679 317.946 20.3948 317.946 19.6486V13.3286H325.383C325.383 13.3286 325.383 13.7046 325.383 14.4566V20.7679C325.383 20.7679 325.007 20.7679 324.255 20.7679H317.946ZM334.472 20.7679C334.472 20.7679 334.472 20.3948 334.472 19.6486V13.3286H341.909C341.909 13.3286 341.909 13.7046 341.909 14.4566V20.7679C341.909 20.7679 341.533 20.7679 340.781 20.7679H334.472ZM322.078 16.635C322.078 16.635 322.078 16.2619 322.078 15.5156V9.19573H329.514C329.514 9.19573 329.514 9.57171 329.514 10.3237V16.635C329.514 16.635 329.139 16.635 328.387 16.635H322.078ZM326.209 16.635C326.209 16.635 326.209 16.2619 326.209 15.5156V9.19573H333.646C333.646 9.19573 333.646 9.57171 333.646 10.3237V16.635C333.646 16.635 333.27 16.635 332.518 16.635H326.209ZM330.341 16.635C330.341 16.635 330.341 16.2619 330.341 15.5156V9.19573H337.777C337.777 9.19573 337.777 9.57171 337.777 10.3237V16.635C337.777 16.635 337.401 16.635 336.65 16.635H330.341Z" fill="white"/>
<path d="M351.022 45.5654C351.022 45.5654 351.022 45.1894 351.022 44.4374V38.1261H358.459C358.459 38.1261 358.459 38.5021 358.459 39.2541V45.5654C358.459 45.5654 358.083 45.5654 357.331 45.5654H351.022ZM355.154 45.5654C355.154 45.5654 355.154 45.1894 355.154 44.4374V38.1261H362.59C362.59 38.1261 362.59 38.5021 362.59 39.2541V45.5654C362.59 45.5654 362.214 45.5654 361.463 45.5654H355.154ZM359.285 45.5654C359.285 45.5654 359.285 45.1894 359.285 44.4374V38.1261H366.722C366.722 38.1261 366.722 38.5021 366.722 39.2541V45.5654C366.722 45.5654 366.346 45.5654 365.594 45.5654H359.285ZM346.891 41.4325C346.891 41.4325 346.891 41.0593 346.891 40.3131V33.9932H354.327C354.327 33.9932 354.327 34.3692 354.327 35.1212V41.4325C354.327 41.4325 353.951 41.4325 353.2 41.4325H346.891ZM363.416 41.4325C363.416 41.4325 363.416 41.0593 363.416 40.3131V33.9932H370.853C370.853 33.9932 370.853 34.3692 370.853 35.1212V41.4325C370.853 41.4325 370.477 41.4325 369.725 41.4325H363.416ZM346.891 37.2995C346.891 37.2995 346.891 36.9264 346.891 36.1802V29.8603H354.327C354.327 29.8603 354.327 30.2363 354.327 30.9882V37.2995C354.327 37.2995 353.951 37.2995 353.2 37.2995H346.891ZM363.416 37.2995C363.416 37.2995 363.416 36.9264 363.416 36.1802V29.8603H370.853C370.853 29.8603 370.853 30.2363 370.853 30.9882V37.2995C370.853 37.2995 370.477 37.2995 369.725 37.2995H363.416ZM359.285 33.1666C359.285 33.1666 359.285 32.7935 359.285 32.0473V25.7274H366.722C366.722 25.7274 366.722 26.1034 366.722 26.8553V33.1666C366.722 33.1666 366.346 33.1666 365.594 33.1666H359.285ZM355.154 31.1002C355.154 31.1002 355.154 30.7271 355.154 29.9808V23.6609H362.59C362.59 23.6609 362.59 24.0369 362.59 24.7889V31.1002C362.59 31.1002 362.214 31.1002 361.463 31.1002H355.154ZM351.022 29.0337C351.022 29.0337 351.022 28.6606 351.022 27.9144V21.5945H358.459C358.459 21.5945 358.459 21.9704 358.459 22.7224V29.0337C358.459 29.0337 358.083 29.0337 357.331 29.0337H351.022ZM346.891 24.9008C346.891 24.9008 346.891 24.5277 346.891 23.7815V17.4616H354.327C354.327 17.4616 354.327 17.8375 354.327 18.5895V24.9008C354.327 24.9008 353.951 24.9008 353.2 24.9008H346.891ZM363.416 24.9008C363.416 24.9008 363.416 24.5277 363.416 23.7815V17.4616H370.853C370.853 17.4616 370.853 17.8375 370.853 18.5895V24.9008C370.853 24.9008 370.477 24.9008 369.725 24.9008H363.416ZM346.891 20.7679C346.891 20.7679 346.891 20.3948 346.891 19.6486V13.3286H354.327C354.327 13.3286 354.327 13.7046 354.327 14.4566V20.7679C354.327 20.7679 353.951 20.7679 353.2 20.7679H346.891ZM363.416 20.7679C363.416 20.7679 363.416 20.3948 363.416 19.6486V13.3286H370.853C370.853 13.3286 370.853 13.7046 370.853 14.4566V20.7679C370.853 20.7679 370.477 20.7679 369.725 20.7679H363.416ZM351.022 16.635C351.022 16.635 351.022 16.2619 351.022 15.5156V9.19573H358.459C358.459 9.19573 358.459 9.57171 358.459 10.3237V16.635C358.459 16.635 358.083 16.635 357.331 16.635H351.022ZM355.154 16.635C355.154 16.635 355.154 16.2619 355.154 15.5156V9.19573H362.59C362.59 9.19573 362.59 9.57171 362.59 10.3237V16.635C362.59 16.635 362.214 16.635 361.463 16.635H355.154ZM359.285 16.635C359.285 16.635 359.285 16.2619 359.285 15.5156V9.19573H366.722C366.722 9.19573 366.722 9.57171 366.722 10.3237V16.635C366.722 16.635 366.346 16.635 365.594 16.635H359.285Z" fill="white"/>
</svg>
