<svg width="100" height="100" viewBox="0 0 100 100" fill="none" xmlns="http://www.w3.org/2000/svg">
<path d="M0 20C0 8.9543 8.95431 0 20 0H80C91.0457 0 100 8.95431 100 20V80C100 91.0457 91.0457 100 80 100H0V20Z" fill="black"/>
<path d="M26.04 61V57.064H33.192V29.896H26.04V25.96H44.76V29.896H37.608V57.064H44.76V61H26.04ZM62.0213 61V29.848H52.4213V25.912H75.9413V29.848H66.3413V61H62.0213Z" fill="white"/>
<path d="M20.08 82.2C19.2 82.2 18.4267 82.0333 17.76 81.7C17.1067 81.3667 16.6 80.8867 16.24 80.26C15.88 79.62 15.7 78.8667 15.7 78V75C15.7 74.12 15.88 73.3667 16.24 72.74C16.6 72.1133 17.1067 71.6333 17.76 71.3C18.4267 70.9667 19.2 70.8 20.08 70.8C21.3467 70.8 22.3667 71.14 23.14 71.82C23.9133 72.5 24.32 73.4267 24.36 74.6H22.56C22.52 73.8933 22.28 73.3533 21.84 72.98C21.4133 72.5933 20.8267 72.4 20.08 72.4C19.2933 72.4 18.6667 72.6267 18.2 73.08C17.7333 73.52 17.5 74.1533 17.5 74.98V78C17.5 78.8267 17.7333 79.4667 18.2 79.92C18.6667 80.3733 19.2933 80.6 20.08 80.6C20.8267 80.6 21.4133 80.4067 21.84 80.02C22.28 79.6333 22.52 79.0933 22.56 78.4H24.36C24.32 79.5733 23.9133 80.5 23.14 81.18C22.3667 81.86 21.3467 82.2 20.08 82.2ZM31.9922 82.2C31.1255 82.2 30.3655 82.0267 29.7122 81.68C29.0722 81.3333 28.5722 80.8467 28.2122 80.22C27.8655 79.58 27.6922 78.84 27.6922 78V75C27.6922 74.1467 27.8655 73.4067 28.2122 72.78C28.5722 72.1533 29.0722 71.6667 29.7122 71.32C30.3655 70.9733 31.1255 70.8 31.9922 70.8C32.8589 70.8 33.6122 70.9733 34.2522 71.32C34.9055 71.6667 35.4055 72.1533 35.7522 72.78C36.1122 73.4067 36.2922 74.1467 36.2922 75V76.94H29.4522V78C29.4522 78.8667 29.6722 79.5333 30.1122 80C30.5522 80.4533 31.1789 80.68 31.9922 80.68C32.6855 80.68 33.2455 80.56 33.6722 80.32C34.0989 80.0667 34.3589 79.6933 34.4522 79.2H36.2522C36.1322 80.12 35.6789 80.8533 34.8922 81.4C34.1189 81.9333 33.1522 82.2 31.9922 82.2ZM34.5322 75.74V75C34.5322 74.1333 34.3122 73.4667 33.8722 73C33.4455 72.5333 32.8189 72.3 31.9922 72.3C31.1789 72.3 30.5522 72.5333 30.1122 73C29.6722 73.4667 29.4522 74.1333 29.4522 75V75.58H34.6722L34.5322 75.74ZM39.8244 82V71H41.6244V73.1H42.0044L41.6244 73.52C41.6244 72.6533 41.8844 71.9867 42.4044 71.52C42.9244 71.04 43.6444 70.8 44.5644 70.8C45.671 70.8 46.551 71.14 47.2044 71.82C47.8577 72.5 48.1844 73.4267 48.1844 74.6V82H46.3844V74.8C46.3844 74.0133 46.171 73.4133 45.7444 73C45.331 72.5733 44.7644 72.36 44.0444 72.36C43.2977 72.36 42.7044 72.5867 42.2644 73.04C41.8377 73.4933 41.6244 74.1467 41.6244 75V82H39.8244ZM57.1766 82C56.2299 82 55.4899 81.7467 54.9566 81.24C54.4366 80.7333 54.1766 80.02 54.1766 79.1V72.64H51.0766V71H54.1766V67.9H55.9766V71H60.3766V72.64H55.9766V79.1C55.9766 79.94 56.3766 80.36 57.1766 80.36H60.1766V82H57.1766ZM67.9688 82.2C67.1021 82.2 66.3421 82.0267 65.6888 81.68C65.0488 81.3333 64.5488 80.8467 64.1888 80.22C63.8421 79.58 63.6688 78.84 63.6688 78V75C63.6688 74.1467 63.8421 73.4067 64.1888 72.78C64.5488 72.1533 65.0488 71.6667 65.6888 71.32C66.3421 70.9733 67.1021 70.8 67.9688 70.8C68.8354 70.8 69.5888 70.9733 70.2288 71.32C70.8821 71.6667 71.3821 72.1533 71.7288 72.78C72.0888 73.4067 72.2688 74.1467 72.2688 75V76.94H65.4288V78C65.4288 78.8667 65.6488 79.5333 66.0888 80C66.5288 80.4533 67.1554 80.68 67.9688 80.68C68.6621 80.68 69.2221 80.56 69.6488 80.32C70.0754 80.0667 70.3354 79.6933 70.4288 79.2H72.2288C72.1088 80.12 71.6554 80.8533 70.8688 81.4C70.0954 81.9333 69.1288 82.2 67.9688 82.2ZM70.5088 75.74V75C70.5088 74.1333 70.2888 73.4667 69.8488 73C69.4221 72.5333 68.7954 72.3 67.9688 72.3C67.1554 72.3 66.5288 72.5333 66.0888 73C65.6488 73.4667 65.4288 74.1333 65.4288 75V75.58H70.6488L70.5088 75.74ZM76.1809 82V71H77.9409V73.1H78.3609L77.7809 74.4C77.7809 73.2133 78.0343 72.32 78.5409 71.72C79.0609 71.1067 79.8276 70.8 80.8409 70.8C82.0009 70.8 82.9209 71.1667 83.6009 71.9C84.2943 72.62 84.6409 73.6 84.6409 74.84V75.5H82.8409V75C82.8409 74.1333 82.6276 73.4733 82.2009 73.02C81.7876 72.5533 81.1943 72.32 80.4209 72.32C79.6609 72.32 79.0609 72.5533 78.6209 73.02C78.1943 73.4867 77.9809 74.1467 77.9809 75V82H76.1809Z" fill="white"/>
</svg>
