<svg width="691" height="353" viewBox="0 0 691 353" fill="none" xmlns="http://www.w3.org/2000/svg">
<path d="M174.912 209.12L153.888 198.896V193.472L174.912 183.248V188.096L160.56 194.96C159.92 195.248 159.312 195.504 158.736 195.728C158.16 195.92 157.728 196.048 157.44 196.112C157.76 196.176 158.208 196.304 158.784 196.496C159.392 196.688 159.984 196.928 160.56 197.216L174.912 204.128V209.12ZM188.41 209.12V204.224L202.763 197.36C203.402 197.072 204.01 196.832 204.586 196.64C205.162 196.448 205.595 196.32 205.883 196.256C205.563 196.192 205.099 196.064 204.49 195.872C203.915 195.648 203.339 195.392 202.763 195.104L188.41 188.24V183.248L209.435 193.472V198.896L188.41 209.12ZM245.973 212V207.296H255.237V190.304H247.173V185.6H260.277V207.296H268.773V212H245.973ZM257.253 181.04C256.133 181.04 255.237 180.752 254.565 180.176C253.893 179.568 253.557 178.768 253.557 177.776C253.557 176.752 253.893 175.952 254.565 175.376C255.237 174.768 256.133 174.464 257.253 174.464C258.373 174.464 259.269 174.768 259.941 175.376C260.613 175.952 260.949 176.752 260.949 177.776C260.949 178.768 260.613 179.568 259.941 180.176C259.269 180.752 258.373 181.04 257.253 181.04ZM274.898 212V185.6H280.034V190.64H281.282L280.034 191.84C280.034 189.728 280.658 188.08 281.906 186.896C283.154 185.712 284.882 185.12 287.09 185.12C289.714 185.12 291.81 185.968 293.378 187.664C294.946 189.328 295.73 191.584 295.73 194.432V212H290.546V195.008C290.546 193.28 290.082 191.952 289.154 191.024C288.226 190.096 286.962 189.632 285.362 189.632C283.73 189.632 282.434 190.128 281.474 191.12C280.546 192.08 280.082 193.488 280.082 195.344V212H274.898ZM312.175 212.48C309.519 212.48 307.391 211.584 305.791 209.792C304.191 208 303.391 205.584 303.391 202.544V195.104C303.391 192.032 304.191 189.6 305.791 187.808C307.391 186.016 309.519 185.12 312.175 185.12C314.351 185.12 316.079 185.728 317.359 186.944C318.639 188.128 319.279 189.76 319.279 191.84L318.175 190.64H319.375L319.231 184.496V176.96H324.415V212H319.279V206.96H318.175L319.279 205.76C319.279 207.84 318.639 209.488 317.359 210.704C316.079 211.888 314.351 212.48 312.175 212.48ZM313.951 207.968C315.583 207.968 316.863 207.472 317.791 206.48C318.751 205.456 319.231 204.048 319.231 202.256V195.344C319.231 193.552 318.751 192.16 317.791 191.168C316.863 190.144 315.583 189.632 313.951 189.632C312.255 189.632 310.927 190.128 309.967 191.12C309.007 192.08 308.527 193.488 308.527 195.344V202.256C308.527 204.112 309.007 205.536 309.967 206.528C310.927 207.488 312.255 207.968 313.951 207.968ZM342.829 212.48C340.685 212.48 338.797 212.064 337.165 211.232C335.565 210.368 334.333 209.168 333.469 207.632C332.605 206.096 332.173 204.304 332.173 202.256V195.344C332.173 193.264 332.605 191.472 333.469 189.968C334.333 188.432 335.565 187.248 337.165 186.416C338.797 185.552 340.685 185.12 342.829 185.12C345.005 185.12 346.893 185.552 348.493 186.416C350.093 187.248 351.325 188.432 352.189 189.968C353.053 191.472 353.485 193.264 353.485 195.344V200.048H337.165V202.256C337.165 204.208 337.645 205.696 338.605 206.72C339.597 207.744 341.021 208.256 342.877 208.256C344.381 208.256 345.597 208 346.525 207.488C347.453 206.944 348.029 206.16 348.253 205.136H353.389C353.005 207.376 351.853 209.168 349.933 210.512C348.013 211.824 345.645 212.48 342.829 212.48ZM348.493 196.928V195.296C348.493 193.376 348.013 191.888 347.053 190.832C346.093 189.776 344.685 189.248 342.829 189.248C341.005 189.248 339.597 189.776 338.605 190.832C337.645 191.888 337.165 193.392 337.165 195.344V196.544L348.877 196.496L348.493 196.928ZM359.274 212L368.538 198.368L359.85 185.6H365.802L370.458 192.896C370.682 193.28 370.906 193.696 371.13 194.144C371.354 194.56 371.53 194.912 371.658 195.2C371.754 194.912 371.914 194.56 372.138 194.144C372.362 193.696 372.586 193.28 372.81 192.896L377.466 185.6H383.418L374.73 198.416L383.946 212H377.994L372.858 204.08C372.634 203.696 372.41 203.264 372.186 202.784C371.962 202.304 371.786 201.92 371.658 201.632C371.53 201.92 371.338 202.304 371.082 202.784C370.858 203.264 370.618 203.696 370.362 204.08L365.178 212H359.274ZM400.391 212.48C399.111 212.48 398.087 212.112 397.319 211.376C396.551 210.608 396.167 209.584 396.167 208.304C396.167 206.992 396.551 205.952 397.319 205.184C398.087 204.384 399.111 203.984 400.391 203.984C401.703 203.984 402.727 204.384 403.463 205.184C404.231 205.952 404.615 206.992 404.615 208.304C404.615 209.584 404.231 210.608 403.463 211.376C402.727 212.112 401.703 212.48 400.391 212.48ZM418.804 212V176.96H423.988V185.6L423.94 190.64H425.188L423.94 191.84C423.94 189.728 424.564 188.08 425.812 186.896C427.06 185.712 428.788 185.12 430.996 185.12C433.62 185.12 435.716 185.968 437.284 187.664C438.852 189.328 439.636 191.584 439.636 194.432V212H434.452V195.008C434.452 193.28 433.988 191.936 433.06 190.976C432.132 190.016 430.868 189.536 429.268 189.536C427.636 189.536 426.34 190.048 425.38 191.072C424.452 192.064 423.988 193.488 423.988 195.344V212H418.804ZM460.834 212C458.434 212 456.562 211.344 455.218 210.032C453.874 208.72 453.202 206.896 453.202 204.56V190.304H445.906V185.6H453.202V178.16H458.386V185.6H468.706V190.304H458.386V204.56C458.386 206.384 459.266 207.296 461.026 207.296H468.226V212H460.834ZM475.167 212V185.6H479.487V188.96H480.447L479.727 189.968C479.727 188.496 480.127 187.328 480.927 186.464C481.727 185.568 482.799 185.12 484.143 185.12C485.583 185.12 486.687 185.68 487.455 186.8C488.255 187.92 488.655 189.456 488.655 191.408L487.503 188.96H489.327L488.559 189.968C488.559 188.496 488.959 187.328 489.759 186.464C490.591 185.568 491.695 185.12 493.071 185.12C494.703 185.12 495.983 185.744 496.911 186.992C497.839 188.208 498.303 189.84 498.303 191.888V212H493.695V192.032C493.695 191.04 493.471 190.272 493.023 189.728C492.607 189.184 491.999 188.912 491.199 188.912C490.399 188.912 489.775 189.184 489.327 189.728C488.911 190.24 488.703 190.992 488.703 191.984V212H484.815V192.032C484.815 191.008 484.591 190.24 484.143 189.728C483.695 189.184 483.055 188.912 482.223 188.912C481.423 188.912 480.815 189.184 480.399 189.728C480.015 190.24 479.823 190.992 479.823 191.984V212H475.167ZM519.308 212C517.676 212 516.252 211.68 515.036 211.04C513.82 210.368 512.86 209.424 512.156 208.208C511.484 206.992 511.148 205.584 511.148 203.984V181.664H502.508V176.96H516.332V203.984C516.332 205.008 516.62 205.824 517.196 206.432C517.772 207.008 518.556 207.296 519.548 207.296H527.708V212H519.308Z" fill="white"/>
<rect x="5" y="5" width="681" height="343" stroke="white" stroke-width="10"/>
<rect x="1" width="690" height="60" fill="white"/>
<path d="M641 10H681V50H641V10Z" fill="#FF0000"/>
</svg>
