<svg width="971" height="380" viewBox="0 0 971 380" fill="none" xmlns="http://www.w3.org/2000/svg">
<rect width="971" height="380" fill="black"/>
<path d="M22.5 379.5L46 260H112.5L133 209H180V325H249.5V101.5H58V82.5H146L173.5 53.5H285.5H352.5V143.5H300.5L308 195L467 189.5L461.5 111H485.5L478 314.5H420V268.5L308 260V350L632 345V236H697.5L690 182.5L566 189.5V236H516V136L674.5 159L690 101.5L805 96V143.5H899.5V177.5L772.5 182.5L781 236L753 300H690V337H951.5L940 28.5M940 28.5L431 45.5L441 22L940 13V28.5Z" stroke="white"/>
</svg>
