<svg width="323" height="93" viewBox="0 0 323 93" fill="none" xmlns="http://www.w3.org/2000/svg">
<mask id="path-1-outside-1_261_10" maskUnits="userSpaceOnUse" x="0" y="0" width="323" height="93" fill="black">
<rect fill="white" width="323" height="93"/>
<path d="M3 3H90.2784V90H3V3Z"/>
<path d="M16.3439 68.7333V61.928H25.4674V30.376H16.3439V23.5707H42.4111V30.376H33.2875V61.928H42.4111V68.7333H16.3439Z"/>
<path d="M62.6819 68.7333V30.7472H50.8276V23.5707H82.3564V30.7472H70.5021V68.7333H62.6819Z"/>
<path d="M117.461 67.8053C114.565 67.8053 112.02 67.2692 109.827 66.1968C107.676 65.0832 106 63.5365 104.8 61.5568C103.6 59.5358 103 57.1643 103 54.4421V45.9045C103 43.1412 103.6 40.7696 104.8 38.7899C106 36.8101 107.676 35.2841 109.827 34.2117C112.02 33.0981 114.565 32.5413 117.461 32.5413C121.764 32.5413 125.198 33.6549 127.764 35.8821C130.329 38.0681 131.674 41.0583 131.798 44.8528H124.04C123.916 43.0793 123.274 41.7182 122.116 40.7696C120.999 39.7797 119.447 39.2848 117.461 39.2848C115.392 39.2848 113.758 39.8622 112.558 41.0171C111.358 42.1307 110.758 43.7392 110.758 45.8427V54.4421C110.758 56.5456 111.358 58.1748 112.558 59.3296C113.758 60.4845 115.392 61.0619 117.461 61.0619C119.447 61.0619 120.999 60.5876 122.116 59.6389C123.274 58.6491 123.916 57.2674 124.04 55.4939H131.798C131.674 59.2884 130.329 62.2992 127.764 64.5264C125.198 66.7124 121.764 67.8053 117.461 67.8053Z"/>
<path d="M154.551 67.8053C151.655 67.8053 149.131 67.2485 146.98 66.1349C144.828 65.0213 143.152 63.4747 141.952 61.4949C140.794 59.474 140.215 57.123 140.215 54.4421V45.9045C140.215 43.2236 140.794 40.8933 141.952 38.9136C143.152 36.8926 144.828 35.3253 146.98 34.2117C149.131 33.0981 151.655 32.5413 154.551 32.5413C157.406 32.5413 159.889 33.0981 161.999 34.2117C164.151 35.3253 165.806 36.8926 166.964 38.9136C168.164 40.8933 168.764 43.2236 168.764 45.9045V52.0293H147.724V54.4421C147.724 56.8343 148.304 58.6491 149.462 59.8864C150.621 61.0825 152.338 61.6805 154.614 61.6805C156.351 61.6805 157.758 61.3918 158.834 60.8144C159.91 60.1957 160.592 59.309 160.882 58.1541H168.516C167.937 61.0825 166.364 63.4334 163.799 65.2069C161.275 66.9392 158.193 67.8053 154.551 67.8053ZM161.254 47.6987V45.8427C161.254 43.4917 160.696 41.6976 159.579 40.4603C158.462 39.1817 156.786 38.5424 154.551 38.5424C152.317 38.5424 150.621 39.1817 149.462 40.4603C148.304 41.7388 147.724 43.5536 147.724 45.9045V47.2037L161.813 47.08L161.254 47.6987Z"/>
<path d="M177.864 67.1867V33.16H185.435V39.656H187.546L185.435 41.4501C185.435 38.6455 186.242 36.4596 187.856 34.8923C189.511 33.325 191.766 32.5413 194.621 32.5413C197.972 32.5413 200.641 33.6549 202.627 35.8821C204.655 38.1093 205.669 41.0996 205.669 44.8528V67.1867H197.91V45.6571C197.91 43.5948 197.373 42.0069 196.297 40.8933C195.221 39.7797 193.711 39.2229 191.766 39.2229C189.863 39.2229 188.352 39.8004 187.235 40.9552C186.16 42.11 185.622 43.7598 185.622 45.9045V67.1867H177.864Z"/>
<path d="M232.642 67.1867C229.374 67.1867 226.808 66.2793 224.946 64.4645C223.126 62.6498 222.216 60.1545 222.216 56.9787V40.1509H212.968V33.16H222.216V23.5707H230.036V33.16H243.131V40.1509H230.036V56.9787C230.036 59.1234 231.091 60.1957 233.201 60.1957H242.511V67.1867H232.642Z"/>
<path d="M266.195 67.8053C263.299 67.8053 260.775 67.2485 258.623 66.1349C256.472 65.0213 254.796 63.4747 253.596 61.4949C252.437 59.474 251.858 57.123 251.858 54.4421V45.9045C251.858 43.2236 252.437 40.8933 253.596 38.9136C254.796 36.8926 256.472 35.3253 258.623 34.2117C260.775 33.0981 263.299 32.5413 266.195 32.5413C269.05 32.5413 271.533 33.0981 273.643 34.2117C275.794 35.3253 277.45 36.8926 278.608 38.9136C279.808 40.8933 280.408 43.2236 280.408 45.9045V52.0293H259.368V54.4421C259.368 56.8343 259.947 58.6491 261.106 59.8864C262.264 61.0825 263.982 61.6805 266.257 61.6805C267.995 61.6805 269.402 61.3918 270.478 60.8144C271.553 60.1957 272.898 59.8864 272.898 59.8864H280.408C279.829 62.8148 278.008 63.4334 275.443 65.2069C272.919 66.9392 269.836 67.8053 266.195 67.8053ZM272.898 47.6987V45.8427C272.898 43.4917 272.34 41.6976 271.222 40.4603C270.105 39.1817 268.429 38.5424 266.195 38.5424C263.961 38.5424 262.264 39.1817 261.106 40.4603C259.947 41.7388 259.368 43.5536 259.368 45.9045V47.2037L273.457 47.08L272.898 47.6987Z"/>
<path d="M290.562 67.1867V33.16H297.886V39.656H299.81L297.514 43.6155C297.514 39.9447 298.341 37.1813 299.996 35.3253C301.651 33.4693 304.092 32.5413 307.32 32.5413C311.002 32.5413 313.899 33.6756 316.009 35.944C318.119 38.2124 319.174 41.347 319.174 45.3477V47.8224H311.044V45.9045C311.044 43.7186 310.464 42.0276 309.306 40.8315C308.189 39.6354 306.637 39.0373 304.651 39.0373C302.624 39.0373 301.051 39.6354 299.934 40.8315C298.858 42.0276 298.32 43.7186 298.32 45.9045V67.1867H290.562Z"/>
</mask>
<path d="M3 3H90.2784V90H3V3Z" fill="black"/>
<path d="M16.3439 68.7333V61.928H25.4674V30.376H16.3439V23.5707H42.4111V30.376H33.2875V61.928H42.4111V68.7333H16.3439Z" fill="white"/>
<path d="M62.6819 68.7333V30.7472H50.8276V23.5707H82.3564V30.7472H70.5021V68.7333H62.6819Z" fill="white"/>
<path d="M117.461 67.8053C114.565 67.8053 112.02 67.2692 109.827 66.1968C107.676 65.0832 106 63.5365 104.8 61.5568C103.6 59.5358 103 57.1643 103 54.4421V45.9045C103 43.1412 103.6 40.7696 104.8 38.7899C106 36.8101 107.676 35.2841 109.827 34.2117C112.02 33.0981 114.565 32.5413 117.461 32.5413C121.764 32.5413 125.198 33.6549 127.764 35.8821C130.329 38.0681 131.674 41.0583 131.798 44.8528H124.04C123.916 43.0793 123.274 41.7182 122.116 40.7696C120.999 39.7797 119.447 39.2848 117.461 39.2848C115.392 39.2848 113.758 39.8622 112.558 41.0171C111.358 42.1307 110.758 43.7392 110.758 45.8427V54.4421C110.758 56.5456 111.358 58.1748 112.558 59.3296C113.758 60.4845 115.392 61.0619 117.461 61.0619C119.447 61.0619 120.999 60.5876 122.116 59.6389C123.274 58.6491 123.916 57.2674 124.04 55.4939H131.798C131.674 59.2884 130.329 62.2992 127.764 64.5264C125.198 66.7124 121.764 67.8053 117.461 67.8053Z" fill="black"/>
<path d="M154.551 67.8053C151.655 67.8053 149.131 67.2485 146.98 66.1349C144.828 65.0213 143.152 63.4747 141.952 61.4949C140.794 59.474 140.215 57.123 140.215 54.4421V45.9045C140.215 43.2236 140.794 40.8933 141.952 38.9136C143.152 36.8926 144.828 35.3253 146.98 34.2117C149.131 33.0981 151.655 32.5413 154.551 32.5413C157.406 32.5413 159.889 33.0981 161.999 34.2117C164.151 35.3253 165.806 36.8926 166.964 38.9136C168.164 40.8933 168.764 43.2236 168.764 45.9045V52.0293H147.724V54.4421C147.724 56.8343 148.304 58.6491 149.462 59.8864C150.621 61.0825 152.338 61.6805 154.614 61.6805C156.351 61.6805 157.758 61.3918 158.834 60.8144C159.91 60.1957 160.592 59.309 160.882 58.1541H168.516C167.937 61.0825 166.364 63.4334 163.799 65.2069C161.275 66.9392 158.193 67.8053 154.551 67.8053ZM161.254 47.6987V45.8427C161.254 43.4917 160.696 41.6976 159.579 40.4603C158.462 39.1817 156.786 38.5424 154.551 38.5424C152.317 38.5424 150.621 39.1817 149.462 40.4603C148.304 41.7388 147.724 43.5536 147.724 45.9045V47.2037L161.813 47.08L161.254 47.6987Z" fill="black"/>
<path d="M177.864 67.1867V33.16H185.435V39.656H187.546L185.435 41.4501C185.435 38.6455 186.242 36.4596 187.856 34.8923C189.511 33.325 191.766 32.5413 194.621 32.5413C197.972 32.5413 200.641 33.6549 202.627 35.8821C204.655 38.1093 205.669 41.0996 205.669 44.8528V67.1867H197.91V45.6571C197.91 43.5948 197.373 42.0069 196.297 40.8933C195.221 39.7797 193.711 39.2229 191.766 39.2229C189.863 39.2229 188.352 39.8004 187.235 40.9552C186.16 42.11 185.622 43.7598 185.622 45.9045V67.1867H177.864Z" fill="black"/>
<path d="M232.642 67.1867C229.374 67.1867 226.808 66.2793 224.946 64.4645C223.126 62.6498 222.216 60.1545 222.216 56.9787V40.1509H212.968V33.16H222.216V23.5707H230.036V33.16H243.131V40.1509H230.036V56.9787C230.036 59.1234 231.091 60.1957 233.201 60.1957H242.511V67.1867H232.642Z" fill="black"/>
<path d="M266.195 67.8053C263.299 67.8053 260.775 67.2485 258.623 66.1349C256.472 65.0213 254.796 63.4747 253.596 61.4949C252.437 59.474 251.858 57.123 251.858 54.4421V45.9045C251.858 43.2236 252.437 40.8933 253.596 38.9136C254.796 36.8926 256.472 35.3253 258.623 34.2117C260.775 33.0981 263.299 32.5413 266.195 32.5413C269.05 32.5413 271.533 33.0981 273.643 34.2117C275.794 35.3253 277.45 36.8926 278.608 38.9136C279.808 40.8933 280.408 43.2236 280.408 45.9045V52.0293H259.368V54.4421C259.368 56.8343 259.947 58.6491 261.106 59.8864C262.264 61.0825 263.982 61.6805 266.257 61.6805C267.995 61.6805 269.402 61.3918 270.478 60.8144C271.553 60.1957 272.898 59.8864 272.898 59.8864H280.408C279.829 62.8148 278.008 63.4334 275.443 65.2069C272.919 66.9392 269.836 67.8053 266.195 67.8053ZM272.898 47.6987V45.8427C272.898 43.4917 272.34 41.6976 271.222 40.4603C270.105 39.1817 268.429 38.5424 266.195 38.5424C263.961 38.5424 262.264 39.1817 261.106 40.4603C259.947 41.7388 259.368 43.5536 259.368 45.9045V47.2037L273.457 47.08L272.898 47.6987Z" fill="black"/>
<path d="M290.562 67.1867V33.16H297.886V39.656H299.81L297.514 43.6155C297.514 39.9447 298.341 37.1813 299.996 35.3253C301.651 33.4693 304.092 32.5413 307.32 32.5413C311.002 32.5413 313.899 33.6756 316.009 35.944C318.119 38.2124 319.174 41.347 319.174 45.3477V47.8224H311.044V45.9045C311.044 43.7186 310.464 42.0276 309.306 40.8315C308.189 39.6354 306.637 39.0373 304.651 39.0373C302.624 39.0373 301.051 39.6354 299.934 40.8315C298.858 42.0276 298.32 43.7186 298.32 45.9045V67.1867H290.562Z" fill="black"/>
<path d="M3 3H90.2784V90H3V3Z" stroke="white" stroke-width="6" mask="url(#path-1-outside-1_261_10)"/>
<path d="M16.3439 68.7333V61.928H25.4674V30.376H16.3439V23.5707H42.4111V30.376H33.2875V61.928H42.4111V68.7333H16.3439Z" stroke="white" stroke-width="6" mask="url(#path-1-outside-1_261_10)"/>
<path d="M62.6819 68.7333V30.7472H50.8276V23.5707H82.3564V30.7472H70.5021V68.7333H62.6819Z" stroke="white" stroke-width="6" mask="url(#path-1-outside-1_261_10)"/>
<path d="M117.461 67.8053C114.565 67.8053 112.02 67.2692 109.827 66.1968C107.676 65.0832 106 63.5365 104.8 61.5568C103.6 59.5358 103 57.1643 103 54.4421V45.9045C103 43.1412 103.6 40.7696 104.8 38.7899C106 36.8101 107.676 35.2841 109.827 34.2117C112.02 33.0981 114.565 32.5413 117.461 32.5413C121.764 32.5413 125.198 33.6549 127.764 35.8821C130.329 38.0681 131.674 41.0583 131.798 44.8528H124.04C123.916 43.0793 123.274 41.7182 122.116 40.7696C120.999 39.7797 119.447 39.2848 117.461 39.2848C115.392 39.2848 113.758 39.8622 112.558 41.0171C111.358 42.1307 110.758 43.7392 110.758 45.8427V54.4421C110.758 56.5456 111.358 58.1748 112.558 59.3296C113.758 60.4845 115.392 61.0619 117.461 61.0619C119.447 61.0619 120.999 60.5876 122.116 59.6389C123.274 58.6491 123.916 57.2674 124.04 55.4939H131.798C131.674 59.2884 130.329 62.2992 127.764 64.5264C125.198 66.7124 121.764 67.8053 117.461 67.8053Z" stroke="white" stroke-width="6" mask="url(#path-1-outside-1_261_10)"/>
<path d="M154.551 67.8053C151.655 67.8053 149.131 67.2485 146.98 66.1349C144.828 65.0213 143.152 63.4747 141.952 61.4949C140.794 59.474 140.215 57.123 140.215 54.4421V45.9045C140.215 43.2236 140.794 40.8933 141.952 38.9136C143.152 36.8926 144.828 35.3253 146.98 34.2117C149.131 33.0981 151.655 32.5413 154.551 32.5413C157.406 32.5413 159.889 33.0981 161.999 34.2117C164.151 35.3253 165.806 36.8926 166.964 38.9136C168.164 40.8933 168.764 43.2236 168.764 45.9045V52.0293H147.724V54.4421C147.724 56.8343 148.304 58.6491 149.462 59.8864C150.621 61.0825 152.338 61.6805 154.614 61.6805C156.351 61.6805 157.758 61.3918 158.834 60.8144C159.91 60.1957 160.592 59.309 160.882 58.1541H168.516C167.937 61.0825 166.364 63.4334 163.799 65.2069C161.275 66.9392 158.193 67.8053 154.551 67.8053ZM161.254 47.6987V45.8427C161.254 43.4917 160.696 41.6976 159.579 40.4603C158.462 39.1817 156.786 38.5424 154.551 38.5424C152.317 38.5424 150.621 39.1817 149.462 40.4603C148.304 41.7388 147.724 43.5536 147.724 45.9045V47.2037L161.813 47.08L161.254 47.6987Z" stroke="white" stroke-width="6" mask="url(#path-1-outside-1_261_10)"/>
<path d="M177.864 67.1867V33.16H185.435V39.656H187.546L185.435 41.4501C185.435 38.6455 186.242 36.4596 187.856 34.8923C189.511 33.325 191.766 32.5413 194.621 32.5413C197.972 32.5413 200.641 33.6549 202.627 35.8821C204.655 38.1093 205.669 41.0996 205.669 44.8528V67.1867H197.91V45.6571C197.91 43.5948 197.373 42.0069 196.297 40.8933C195.221 39.7797 193.711 39.2229 191.766 39.2229C189.863 39.2229 188.352 39.8004 187.235 40.9552C186.16 42.11 185.622 43.7598 185.622 45.9045V67.1867H177.864Z" stroke="white" stroke-width="6" mask="url(#path-1-outside-1_261_10)"/>
<path d="M232.642 67.1867C229.374 67.1867 226.808 66.2793 224.946 64.4645C223.126 62.6498 222.216 60.1545 222.216 56.9787V40.1509H212.968V33.16H222.216V23.5707H230.036V33.16H243.131V40.1509H230.036V56.9787C230.036 59.1234 231.091 60.1957 233.201 60.1957H242.511V67.1867H232.642Z" stroke="white" stroke-width="6" mask="url(#path-1-outside-1_261_10)"/>
<path d="M266.195 67.8053C263.299 67.8053 260.775 67.2485 258.623 66.1349C256.472 65.0213 254.796 63.4747 253.596 61.4949C252.437 59.474 251.858 57.123 251.858 54.4421V45.9045C251.858 43.2236 252.437 40.8933 253.596 38.9136C254.796 36.8926 256.472 35.3253 258.623 34.2117C260.775 33.0981 263.299 32.5413 266.195 32.5413C269.05 32.5413 271.533 33.0981 273.643 34.2117C275.794 35.3253 277.45 36.8926 278.608 38.9136C279.808 40.8933 280.408 43.2236 280.408 45.9045V52.0293H259.368V54.4421C259.368 56.8343 259.947 58.6491 261.106 59.8864C262.264 61.0825 263.982 61.6805 266.257 61.6805C267.995 61.6805 269.402 61.3918 270.478 60.8144C271.553 60.1957 272.898 59.8864 272.898 59.8864H280.408C279.829 62.8148 278.008 63.4334 275.443 65.2069C272.919 66.9392 269.836 67.8053 266.195 67.8053ZM272.898 47.6987V45.8427C272.898 43.4917 272.34 41.6976 271.222 40.4603C270.105 39.1817 268.429 38.5424 266.195 38.5424C263.961 38.5424 262.264 39.1817 261.106 40.4603C259.947 41.7388 259.368 43.5536 259.368 45.9045V47.2037L273.457 47.08L272.898 47.6987Z" stroke="white" stroke-width="6" mask="url(#path-1-outside-1_261_10)"/>
<path d="M290.562 67.1867V33.16H297.886V39.656H299.81L297.514 43.6155C297.514 39.9447 298.341 37.1813 299.996 35.3253C301.651 33.4693 304.092 32.5413 307.32 32.5413C311.002 32.5413 313.899 33.6756 316.009 35.944C318.119 38.2124 319.174 41.347 319.174 45.3477V47.8224H311.044V45.9045C311.044 43.7186 310.464 42.0276 309.306 40.8315C308.189 39.6354 306.637 39.0373 304.651 39.0373C302.624 39.0373 301.051 39.6354 299.934 40.8315C298.858 42.0276 298.32 43.7186 298.32 45.9045V67.1867H290.562Z" stroke="white" stroke-width="6" mask="url(#path-1-outside-1_261_10)"/>
</svg>
